<?xml version="1.0" encoding="utf-8"?>
<!-- Generator: Adobe Illustrator 25.4.1, SVG Export Plug-In . SVG Version: 6.00 Build 0)  -->
<svg version="1.1" id="Capa_1" xmlns="http://www.w3.org/2000/svg" xmlns:xlink="http://www.w3.org/1999/xlink" x="0px" y="0px"
	 viewBox="0 0 500 153.19" style="enable-background:new 0 0 500 153.19;" xml:space="preserve">
<style type="text/css">
	.st0{fill:#231F20;}
	.st1{fill:url(#SVGID_1_);}
	.st2{fill:url(#SVGID_00000123406497808172961320000015370380852254201257_);}
	.st3{fill:url(#SVGID_00000145779148218890530580000011344632487852752806_);}
	.st4{fill:url(#SVGID_00000040565185762726651610000010862311068968533930_);}
</style>
<g>
	<path class="st0" d="M479.3,112.03c-1.31-3.06-3.18-5.8-5.57-8.16c-2.38-2.35-5.15-4.2-8.24-5.49c-3.19-1.33-6.58-2.01-10.08-2.01
		c-3.49,0-6.88,0.68-10.08,2.01c-3.09,1.29-5.86,3.13-8.24,5.49c-2.39,2.36-4.26,5.1-5.57,8.16c-1.36,3.17-2.05,6.54-2.05,10.01
		c0,3.47,0.69,6.84,2.05,10.01c1.31,3.06,3.18,5.8,5.57,8.16c2.38,2.35,5.15,4.2,8.24,5.49c3.19,1.33,6.58,2.01,10.08,2.01
		c3.49,0,6.88-0.68,10.08-2.01c3.09-1.29,5.86-3.13,8.24-5.49c2.39-2.36,4.26-5.1,5.57-8.16c1.36-3.17,2.05-6.54,2.05-10.01
		C481.35,118.57,480.66,115.2,479.3,112.03z M455.42,142.42c-11.41,0-20.7-9.14-20.7-20.38c0-11.24,9.28-20.38,20.7-20.38
		c11.41,0,20.7,9.14,20.7,20.38C476.11,133.28,466.83,142.42,455.42,142.42z"/>
	<path class="st0" d="M465.38,126.44c-0.8-1.7-1.89-3.08-3.25-4.11c3.1-1.57,4.66-4,4.66-7.24c0-2.68-1.2-4.83-3.57-6.38
		c-2.3-1.5-5.43-2.27-9.29-2.27c-2.55,0-5.47,0.27-8.69,0.79l-0.44,0.07v29.35h5.25V124.1h4.81c1.99,0,3.58,0.95,4.87,2.9
		c1.33,2.02,2.3,5.11,2.89,9.19l0.06,0.45h5.27l-0.1-0.61C467.14,131.64,466.31,128.41,465.38,126.44z M454.67,119.89h-4.61v-8.93
		c1.06-0.09,2.36-0.13,3.88-0.13c5.21,0,7.75,1.47,7.75,4.5C461.68,118.4,459.39,119.89,454.67,119.89z"/>
</g>
<linearGradient id="SVGID_1_" gradientUnits="userSpaceOnUse" x1="18.1691" y1="77.4139" x2="136.9078" y2="77.4139">
	<stop  offset="5.586592e-03" style="stop-color:#EC6717"/>
	<stop  offset="1" style="stop-color:#F39200"/>
</linearGradient>
<path class="st1" d="M136.91,13.18l-8.32,26.19c-4.92-2.21-9.9-3.86-14.94-4.96c-5.04-1.1-10.21-1.65-15.5-1.65
	c-8.01,0-14.13,1.18-18.39,3.55c-4.25,2.36-6.38,5.78-6.38,10.26c0,4.85,4.79,9.26,14.37,13.24c3.84,1.58,6.87,2.9,9.07,3.97
	c11.16,5.42,18.75,10.72,22.78,15.88c4.03,5.17,6.05,11.75,6.05,19.76c0,14.69-5.61,26.39-16.83,35.12s-26.44,13.09-45.66,13.09
	c-8.13,0-15.93-0.61-23.4-1.84c-7.47-1.23-14.67-3.07-21.6-5.53l7.75-27.7c5.61,2.77,11.04,4.85,16.31,6.24
	c5.26,1.39,10.41,2.08,15.46,2.08c9.2,0,16.45-1.51,21.74-4.54c5.29-3.03,7.94-7.12,7.94-12.29c0-6.49-7.03-12.54-21.08-18.15
	c-3.53-1.39-6.27-2.49-8.22-3.31c-7.63-3.21-13.3-7.44-17.02-12.67c-3.72-5.23-5.58-11.53-5.58-18.91c0-12.98,5.2-23.52,15.6-31.62
	C61.47,11.27,75.11,7.22,92,7.22c9.39,0,17.88,0.51,25.48,1.51C125.07,9.74,131.55,11.22,136.91,13.18z"/>
<path d="M172.1,10.25h35.83l-28.64,134.34h-35.83L172.1,10.25z"/>
<path d="M235.44,10.25h94.63l-5.39,24.96h-58.9l-5.58,26.94h55.4l-5.11,24.2h-55.49l-7,33.09h60.98l-5.39,25.15h-96.81L235.44,10.25
	z"/>
<path d="M338.2,10.25h35.45l7.75,72.61c0.38,3.47,0.66,6.9,0.85,10.3c0.19,3.4,0.28,6.74,0.28,10.02c0,2.33-0.05,4.67-0.14,7
	c-0.1,2.33-0.24,4.63-0.43,6.9h0.95c1.26-4.41,2.9-9.04,4.92-13.9c2.02-4.85,4.44-9.96,7.28-15.31l40.65-77.62h37.81l-74.59,134.34
	h-43.11L338.2,10.25z"/>
<linearGradient id="SVGID_00000051362408368461961670000008208994391443579533_" gradientUnits="userSpaceOnUse" x1="431.3835" y1="14.4246" x2="473.5767" y2="14.4246">
	<stop  offset="0" style="stop-color:#A09D9D"/>
	<stop  offset="1" style="stop-color:#7A7A7A"/>
</linearGradient>
<polygon style="fill:url(#SVGID_00000051362408368461961670000008208994391443579533_);" points="468.94,18.6 473.58,10.24 
	435.76,10.24 431.38,18.6 "/>
<linearGradient id="SVGID_00000057862120634507577220000016973667190924644481_" gradientUnits="userSpaceOnUse" x1="338.2001" y1="14.4246" x2="374.5431" y2="14.4246">
	<stop  offset="5.586592e-03" style="stop-color:#7A7A7A"/>
	<stop  offset="1" style="stop-color:#A09D9D"/>
</linearGradient>
<polygon style="fill:url(#SVGID_00000057862120634507577220000016973667190924644481_);" points="374.54,18.6 373.65,10.24 
	338.2,10.24 339.3,18.6 "/>
<linearGradient id="SVGID_00000100364898465433117500000004457178209917660331_" gradientUnits="userSpaceOnUse" x1="354.4678" y1="139.2259" x2="404.9343" y2="139.2259">
	<stop  offset="5.586592e-03" style="stop-color:#EC6717"/>
	<stop  offset="1" style="stop-color:#F39200"/>
</linearGradient>
<polygon style="fill:url(#SVGID_00000100364898465433117500000004457178209917660331_);" points="354.47,133.87 355.88,144.58 
	398.99,144.58 404.93,133.87 "/>
</svg>
