<svg id="Capa_1" data-name="Capa 1" xmlns="http://www.w3.org/2000/svg" viewBox="0 0 81.26 81.26"><defs><style>.cls-1{fill:#3f0097;}.cls-2{fill:#fff;}.cls-3{fill:#33b9df;}</style></defs><rect class="cls-1" width="81.26" height="81.26" rx="18.51"/><path class="cls-2" d="M54.05,49.33a5.82,5.82,0,0,0-.42-8.59,5.92,5.92,0,0,0-7.91.5l-2.24,2.24h0l-2.36,2.36A13.87,13.87,0,0,1,21.51,26.22l2.35-2.36a6.76,6.76,0,0,0-4.78-11.55h0a6.77,6.77,0,0,0-6.77,6.77v43.1A6.77,6.77,0,0,0,19.08,69H31.62a6.78,6.78,0,0,0,4.79-2Z"/><path class="cls-3" d="M49.64,12.31a6.77,6.77,0,0,0-4.79,2L27.21,31.93a5.8,5.8,0,1,0,8.21,8.2l2.36-2.35h0l2.15-2.15a14.06,14.06,0,0,1,19.52-.51A13.88,13.88,0,0,1,59.75,55l-2.36,2.36A6.77,6.77,0,0,0,62.18,69h0A6.77,6.77,0,0,0,69,62.18V19.08a6.77,6.77,0,0,0-6.77-6.77Z"/></svg>