<svg id="Capa_1" data-name="Capa 1" xmlns="http://www.w3.org/2000/svg" viewBox="0 0 321.86 81.26"><defs><style>.cls-1{fill:#3f0097;}.cls-2{fill:#313b45;}.cls-3{fill:#fff;}.cls-4{fill:#69c8f2;}.cls-5{fill:#221e20;}</style></defs><rect class="cls-1" width="81.26" height="81.26" rx="18.51"/><path class="cls-2" d="M101.73,58.24l4.59-6.35c3.92,3.56,7,5.7,11.83,5.7,4.33,0,7.68-1.78,7.68-5.07,0-2.94-2.55-4.07-7.32-5.25-5.43-1.37-15.45-3.29-15.45-12.84,0-7.59,6.32-12.51,16.25-12.51a24.16,24.16,0,0,1,15.48,5.31L131,34c-4-2.52-7-4.27-11.68-4.27-4.33,0-7.09,1.6-7.09,4.56,0,3.23,3.35,4,6.53,4.78,7.47,1.69,16.3,3.79,16.3,13.28,0,8.15-6.52,13.28-16.07,13.28A23,23,0,0,1,101.73,58.24Z" transform="translate(-4.79 -4.33)"/><path class="cls-2" d="M139.63,49.58c0-9.34,6.43-15.95,15.92-15.95s16,6.64,16,15.95-6.61,16-16,16S139.63,59,139.63,49.58Zm24,0c0-5.9-3.64-9-8.06-9s-8.1,3.08-8.1,9,3.71,9,8.1,9S163.67,55.51,163.67,49.55Z" transform="translate(-4.79 -4.33)"/><path class="cls-2" d="M187.52,32.56v1.93h9.13v6.37h-9.13v24h-8.16v-24h-4.83V34.49h4.83V33.27c0-4.06,0-12.3,10.77-12.3a40.83,40.83,0,0,1,6.87.71v6.5a24.61,24.61,0,0,0-5.07-.63C187.52,27.55,187.52,30,187.52,32.56Z" transform="translate(-4.79 -4.33)"/><path class="cls-2" d="M223.37,58.15v6.76a52.55,52.55,0,0,1-7.06.62c-11.21,0-11.21-7.83-11.21-12.33V40.86H200V34.49h5.07v-10h8.07v10h8.42v6.37h-8.42v13c0,2.22,0,4.8,5.13,4.8A26.48,26.48,0,0,0,223.37,58.15Z" transform="translate(-4.79 -4.33)"/><path class="cls-2" d="M228.89,22.33H237V64.85h-8.15Z" transform="translate(-4.79 -4.33)"/><path class="cls-2" d="M275.94,34.34V64.85H268.5v-4A13.06,13.06,0,0,1,258,65.59c-8.39,0-15.15-6.11-15.15-16s6.65-16,15.3-16a13.94,13.94,0,0,1,9.91,3.74v-3ZM267.4,49.58c0-5.9-3.76-9-8.33-9s-8.33,3.08-8.33,9,3.83,9,8.36,9S267.4,55.54,267.4,49.58Z" transform="translate(-4.79 -4.33)"/><path class="cls-2" d="M294.28,61.1l1.07.78a7.1,7.1,0,1,1,0-8.12l-1.07.77a5.71,5.71,0,0,0-4.82-2.61,5.9,5.9,0,0,0,0,11.8A5.72,5.72,0,0,0,294.28,61.1Z" transform="translate(-4.79 -4.33)"/><path class="cls-2" d="M307.73,64.85l-3.59-5.39h-4.27v5.39h-1.39V50.78h6.31a4.34,4.34,0,0,1,.78,8.61l3.64,5.46ZM299.87,52v6.32h4.73a3.16,3.16,0,0,0,0-6.31Z" transform="translate(-4.79 -4.33)"/><path class="cls-2" d="M319.68,59.41l5.48-8.63h1.49V64.85h-1.38V53h0L320,61.23h-.79L313.87,53h0V64.85h-1.38V50.78H314l5.48,8.63Z" transform="translate(-4.79 -4.33)"/><path class="cls-3" d="M58.83,53.66a5.81,5.81,0,0,0-.41-8.59,5.92,5.92,0,0,0-7.91.5l-2.24,2.24h0l-2.36,2.36A13.87,13.87,0,0,1,26.29,30.55l2.36-2.36a6.76,6.76,0,0,0-4.78-11.55h0a6.78,6.78,0,0,0-6.78,6.77v43.1a6.78,6.78,0,0,0,6.78,6.77H36.41a6.78,6.78,0,0,0,4.79-2Z" transform="translate(-4.79 -4.33)"/><path class="cls-4" d="M54.43,16.64a6.77,6.77,0,0,0-4.79,2L32,36.26a5.8,5.8,0,0,0,8.21,8.2l2.35-2.35h0L44.72,40a14.07,14.07,0,0,1,19.52-.5,13.88,13.88,0,0,1,.3,19.91l-2.36,2.36A6.77,6.77,0,0,0,67,73.28h0a6.77,6.77,0,0,0,6.77-6.77V23.41A6.77,6.77,0,0,0,67,16.64Z" transform="translate(-4.79 -4.33)"/><path class="cls-5" d="M67,50.13" transform="translate(-4.79 -4.33)"/></svg>