<svg id="Capa_1" data-name="Capa 1" xmlns="http://www.w3.org/2000/svg" viewBox="0 0 321.34 81.26"><defs><style>.cls-1{fill:#3f0097;}.cls-2{fill:#313b45;}.cls-3{fill:#fff;}.cls-4{fill:#69c8f2;}.cls-5{fill:#221e20;}</style></defs><rect class="cls-1" width="81.26" height="81.26" rx="18.51"/><path class="cls-2" d="M96.94,53.91l4.6-6.35c3.91,3.56,7,5.7,11.83,5.7,4.32,0,7.67-1.78,7.67-5.07,0-2.94-2.55-4.06-7.32-5.25-5.42-1.36-15.45-3.29-15.45-12.84,0-7.59,6.32-12.51,16.25-12.51A24.16,24.16,0,0,1,130,22.9l-3.77,6.73c-4-2.52-7-4.27-11.68-4.27-4.33,0-7.08,1.6-7.08,4.56,0,3.24,3.35,4,6.52,4.78,7.47,1.69,16.3,3.79,16.3,13.28,0,8.15-6.52,13.28-16.06,13.28A23,23,0,0,1,96.94,53.91Z"/><path class="cls-2" d="M134.84,45.25c0-9.34,6.43-15.95,15.92-15.95s16,6.64,16,16-6.61,16-16,16S134.84,54.62,134.84,45.25Zm24,0c0-5.9-3.64-9-8.06-9s-8.09,3.08-8.09,9,3.7,9,8.09,9S158.88,51.18,158.88,45.22Z"/><path class="cls-2" d="M182.73,28.23v1.93h9.13v6.38h-9.13v24h-8.15v-24h-4.84V30.16h4.84V29c0-4.07,0-12.31,10.76-12.31a40.83,40.83,0,0,1,6.87.71v6.5a24.51,24.51,0,0,0-5.06-.63C182.73,23.22,182.73,25.65,182.73,28.23Z"/><path class="cls-2" d="M218.58,53.82v6.76a52.4,52.4,0,0,1-7.06.62c-11.2,0-11.2-7.82-11.2-12.33V36.54h-5.07V30.16h5.07v-10h8.06v10h8.42v6.38h-8.42v13c0,2.22,0,4.8,5.13,4.8A26.48,26.48,0,0,0,218.58,53.82Z"/><path class="cls-2" d="M224.1,18h8.15V60.52H224.1Z"/><path class="cls-2" d="M271.15,30V60.52h-7.44v-4a13.06,13.06,0,0,1-10.46,4.77c-8.39,0-15.15-6.11-15.15-16s6.64-16,15.29-16A13.94,13.94,0,0,1,263.3,33V30Zm-8.53,15.24c0-5.9-3.77-9-8.34-9s-8.33,3.08-8.33,9,3.83,9,8.36,9S262.62,51.21,262.62,45.25Z"/><path class="cls-3" d="M54.05,49.33a5.82,5.82,0,0,0-.42-8.59,5.92,5.92,0,0,0-7.91.5l-2.24,2.24h0l-2.36,2.36A13.87,13.87,0,0,1,21.51,26.22l2.35-2.36a6.76,6.76,0,0,0-4.78-11.55h0a6.77,6.77,0,0,0-6.77,6.77v43.1A6.77,6.77,0,0,0,19.08,69H31.62a6.78,6.78,0,0,0,4.79-2Z"/><path class="cls-4" d="M49.64,12.31a6.77,6.77,0,0,0-4.79,2L27.21,31.93a5.8,5.8,0,1,0,8.21,8.2l2.36-2.35h0l2.15-2.15a14.06,14.06,0,0,1,19.52-.51A13.88,13.88,0,0,1,59.75,55l-2.36,2.36A6.77,6.77,0,0,0,62.18,69h0A6.77,6.77,0,0,0,69,62.18V19.08a6.77,6.77,0,0,0-6.77-6.77Z"/><path class="cls-5" d="M62.21,45.8"/><path class="cls-2" d="M279.59,60.89V47h10.94v1.6h-9.21v4.08h5.56v1.6h-5.56v5h9.77v1.6Z"/><path class="cls-2" d="M293.6,60.89V47h8a4.67,4.67,0,0,1,3.2,1,3.6,3.6,0,0,1,1.16,2.85,3.84,3.84,0,0,1-.91,2.58,3.92,3.92,0,0,1-2.39,1.35l3.48,6.11h-1.92l-3.47-6.09h-5.4v6.09Zm1.72-7.71h6.14a3,3,0,0,0,2-.58,2.13,2.13,0,0,0,.68-1.7,2.2,2.2,0,0,0-.68-1.71,2.7,2.7,0,0,0-1.89-.61h-6.23Z"/><path class="cls-2" d="M309,60.89V47h8a4.66,4.66,0,0,1,3.19,1,3.44,3.44,0,0,1,1.17,2.75,4,4,0,0,1-1.13,2.94,4.05,4.05,0,0,1-3,1.12h-6.48v6.09Zm1.72-7.71h6.14a3,3,0,0,0,2-.58,2.13,2.13,0,0,0,.67-1.7,2.19,2.19,0,0,0-.67-1.71,2.71,2.71,0,0,0-1.9-.61h-6.22Z"/></svg>